<svg width="86" height="70" viewBox="0 0 86 70" fill="none" xmlns="http://www.w3.org/2000/svg">
<path d="M3.19999 0.849915C2.59999 0.949913 1.69999 1.49992 1.19999 2.09991C0.299988 3.04992 0.249988 4.54991 0.0999878 27.6999C0.0499878 41.1999 0.0999878 52.7499 0.249988 53.3999C0.399988 53.9999 0.949988 54.9499 1.49999 55.4999C2.44999 56.4499 3.24999 56.4999 17.5 56.4999H32.55L32.2 59.8499C31.95 62.7499 31.7 63.4499 30.45 64.5999C29.5 65.4999 28.45 65.9999 27.45 65.9999C24.45 65.9999 22.9 67.8499 24.95 68.9999C26.2 69.6499 51.45 69.6999 53.2 68.9999C55.85 67.9999 54.5 66.3499 50.55 65.8499C47.35 65.4499 46.5 64.3499 46.15 60.0999L45.85 56.4999H51.7H57.5V59.6999C57.5 62.3999 57.7 63.1499 58.75 64.4499C60.9 66.9499 64.85 68.1499 71.25 68.1999C77.65 68.2499 81.6 67.2499 84.15 64.9999L85.75 63.5999L85.9 52.3499C86.1 38.7999 85.95 38.0999 81.9 36.2499C80.45 35.5499 78.95 34.9999 78.65 34.9999C78.15 34.9999 78 31.4999 78 19.0499C78 4.09991 77.95 3.04992 77.05 1.94991L76.1 0.749916L40.15 0.699913C20.4 0.649918 3.74999 0.699913 3.19999 0.849915ZM75 19.1499V34.2499L71.05 34.3499C66.2 34.4499 61.6 35.6499 59.45 37.4499C58.05 38.5999 57.8 39.1999 57.6 41.6499L57.4 44.4999H30.2H2.99999V24.2499V3.99992H39H75V19.1499ZM78.8 38.2999C86.1 40.2999 81.75 43.9499 71.95 43.9999C66.75 43.9999 62.7 43.0999 61.35 41.5999C60.55 40.6999 60.55 40.5999 61.35 39.8499C64.3 37.1999 72.3 36.4999 78.8 38.2999ZM64.75 46.2999C69.35 47.5999 77.95 47.0499 82.15 45.2499C82.85 44.9499 83 45.1499 83 46.3499C83 48.8999 80.1 50.4999 74.4 51.1999C69.4 51.7499 62.15 50.1999 60.9 48.2999C60.7 47.9999 60.5 47.0999 60.5 46.2999C60.5 45.1499 60.65 44.9499 61.4 45.2499C61.85 45.4499 63.35 45.9499 64.75 46.2999ZM57.5 50.4999V53.4999L30.4 53.3999L3.24999 53.2499L3.09999 50.3499L2.94999 47.4999H30.25H57.5V50.4999ZM71.75 54.0999C76.25 54.0999 78.75 53.6499 82.15 52.2499C82.95 51.8999 83.05 52.0999 82.9 53.5499C82.7 55.7999 80.45 57.2499 75.85 58.0499C70.3 58.9999 62.35 57.5499 60.9 55.2999C60.7 54.9999 60.5 54.1499 60.5 53.4499V52.0999L63.65 53.0999C65.9 53.8499 68.1 54.0999 71.75 54.0999ZM43.15 60.2499C43.35 62.3499 43.75 64.4999 44 64.9999C44.5 65.9499 44.35 65.9999 39.2 65.9999C34.35 65.9999 33.9 65.9499 34.25 65.0999C34.55 64.3499 35.45 58.6499 35.5 57.0999C35.5 56.6999 36.6 56.4999 39.2 56.4999H42.85L43.15 60.2499ZM71.75 61.1499C75.6 61.1499 77.9 60.8999 79.5 60.3499C80.75 59.8999 82.05 59.4999 82.4 59.4999C83.35 59.4999 83.1 61.8499 82 62.8999C78.85 65.8499 67.9 66.2499 62.55 63.6499C61.05 62.8999 60.75 62.4499 60.6 60.9499L60.45 59.1499L63.35 60.1499C65.6 60.9499 67.5 61.1499 71.75 61.1499Z" fill="#FF6C2B"/>
<path d="M17.9 18.05C14.15 22.1 12.25 24.45 12.25 25.25C12.25 26 14.15 28.35 18.05 32.45C21.25 35.75 24.1 38.5 24.4 38.5C24.7 38.5 25.2 38.05 25.5 37.45C26 36.55 25.6 35.95 22.15 32.35C20 30.1 17.6 27.5 16.75 26.6L15.3 25L19.05 21.1C26.05 13.85 26.25 13.65 25.5 12.75C25.15 12.35 24.6 12 24.25 12C23.85 12 21.05 14.7 17.9 18.05Z" fill="#FF6C2B"/>
<path d="M37.6 12.6C36.7 13.75 28.1 36.7 28.35 37.35C28.5 37.7 29.1 38 29.75 38C30.75 38 31.35 36.75 35.45 26C37.95 19.4 40 13.7 40 13.3C40 12.9 39.65 12.45 39.2 12.3C38.15 11.9 38.2 11.9 37.6 12.6Z" fill="#FF6C2B"/>
<path d="M42.85 12.35C42 13.2 42.85 14.45 47.7 19.6L52.95 25.15L47.85 30.6C45.05 33.6 42.7 36.35 42.6 36.7C42.5 37.05 42.85 37.65 43.3 38.05C44.05 38.7 44.75 38.1 50.35 32.25C53.7 28.7 56.5 25.5 56.5 25.15C56.5 24.2 44.85 12 43.95 12C43.5 12 43 12.15 42.85 12.35Z" fill="#FF6C2B"/>
</svg>
