<svg width="80" height="100" viewBox="0 0 80 100" fill="none" xmlns="http://www.w3.org/2000/svg">
<path d="M0 6.25C0 2.79883 2.98542 0 6.66667 0H73.3333C77.0208 0 80 2.79883 80 6.25C80 9.70117 77.0208 12.5 73.3333 12.5V14.6445C73.3333 22.9297 69.8125 30.8789 63.5625 36.7383L49.4375 50L63.5625 63.2617C69.8125 69.1211 73.3333 77.0703 73.3333 85.3516V87.5C77.0208 87.5 80 90.293 80 93.75C80 97.207 77.0208 100 73.3333 100H6.66667C2.98542 100 0 97.207 0 93.75C0 90.293 2.98542 87.5 6.66667 87.5V85.3516C6.66667 77.0703 10.1792 69.1211 16.4292 63.2617L30.5625 50L16.4292 36.7383C10.1792 30.8789 6.66667 22.9297 6.66667 14.6445V12.5C2.98542 12.5 0 9.70117 0 6.25ZM20 12.5V14.6445C20 19.6094 22.1042 24.3945 25.8542 27.9102L40 41.1523L54.1458 27.9102C57.8958 24.3945 60 19.6094 60 14.6445V12.5H20ZM20 87.5H60V85.3516C60 80.3906 57.8958 75.6055 54.1458 72.0898L40 58.8477L25.8542 72.0898C22.1042 75.6055 20 80.3906 20 85.3516V87.5Z" fill="#CEE8FD"/>
</svg>
