<svg width="90" height="80" viewBox="0 0 90 80" fill="none" xmlns="http://www.w3.org/2000/svg">
<path d="M58.3335 6.37433L40.3328 76.3723C39.6437 79.0284 37.1546 80.5596 34.7639 79.8096C32.3731 79.044 30.995 76.2785 31.67 73.6224L49.6707 3.62759C50.3598 0.972419 52.8489 -0.565001 55.2397 0.19371C57.6304 0.952264 59.0086 3.71978 58.3335 6.37433ZM72.931 18.969L88.6816 36.4681C90.4395 38.4211 90.4395 41.5772 88.6816 43.5302L72.931 61.0293C71.1731 62.9823 68.3324 62.9823 66.5745 61.0293C64.8166 59.0763 64.8166 55.9202 66.5745 53.9672L79.1328 39.9992L66.5745 26.0311C64.8166 24.0781 64.8166 20.922 66.5745 18.969C68.3324 17.016 71.1731 17.016 72.931 18.969ZM23.429 26.0311L10.8637 39.9992L23.429 53.9672C25.1869 55.9202 25.1869 59.0763 23.429 61.0293C21.6712 62.9823 18.8304 62.9823 17.0725 61.0293L1.31799 43.5302C-0.43933 41.5772 -0.43933 38.4211 1.31799 36.4681L17.0725 18.969C18.8304 17.016 21.6712 17.016 23.429 18.969C25.1869 20.922 25.1869 24.0781 23.429 26.0311Z" fill="#CEE8FD"/>
</svg>
