<svg width="98" height="100" viewBox="0 0 98 100" fill="none" xmlns="http://www.w3.org/2000/svg">
<path d="M6.10938 1.40625C0.640625 4.375 0.5625 4.60938 0.5625 38.125C0.5625 71.4062 0.640625 71.875 5.64062 75C7.90625 76.4062 9.46875 76.5625 19.625 76.5625C25.875 76.5625 31.0312 76.7188 31.0312 76.9531C31.0312 77.1875 29.625 80.1562 27.9062 83.5938L24.7812 89.8438H19.7812C15.9531 89.8438 14.3906 90.2344 12.75 91.4844C10.3281 93.4375 10.0938 96.25 12.2812 98.4375C13.7656 99.9219 14.8594 100 49 100C83.1406 100 84.2344 99.9219 85.7188 98.4375C87.9062 96.25 87.6719 93.4375 85.25 91.4844C83.6094 90.2344 82.0469 89.8438 78.2188 89.8438H73.2188L70.0938 83.5938C68.375 80.1562 66.9688 77.1875 66.9688 76.9531C66.9688 76.7188 72.125 76.5625 78.375 76.5625C88.5312 76.5625 90.0938 76.4062 92.3594 75C97.3594 71.875 97.4375 71.4062 97.4375 38.125C97.4375 4.60938 97.3594 4.375 91.8906 1.40625C89.4688 0.078125 86.5 0 49 0C11.5 0 8.53125 0.078125 6.10938 1.40625ZM90.0156 4.21875C94.1562 5.9375 94.3906 8.04688 94.1562 35.5469L93.9219 59.7656L66.9688 59.9219L40.0156 60.0781L42.9844 58.5156C45.7188 57.1094 45.875 56.7969 45.875 53.125C45.875 49.2969 45.875 49.2188 42.2031 47.5C37.8281 45.3906 37.125 43.3594 39.5469 39.9219C41.6562 37.0312 41.5781 36.4062 39.0781 33.0469C37.0469 30.3906 36.8125 30.3125 33.2188 30.7812C27.8281 31.4844 26.3438 30.4688 26.3438 26.0938C26.3438 22.8125 26.1875 22.5 23.6094 21.4062C19.4688 19.6875 17.5156 20 15.5625 22.6562C13.0625 25.9375 10.6406 25.7031 6.8125 21.875C3.92188 18.9844 3.6875 18.4375 3.6875 14.5312C3.6875 8.67188 4.9375 5.54688 7.90625 4.21875C11.5781 2.65625 86.1875 2.65625 90.0156 4.21875ZM23.0625 28.0469C23.2969 30.8594 23.7656 31.5625 26.3438 33.2812C29 35.0781 29.625 35.1562 32.3594 34.4531C34.8594 33.75 35.4844 33.8281 36.3438 34.9219C37.5938 36.6406 37.5156 36.9531 35.7188 40C34.3906 42.3438 34.3125 43.0469 35.0938 45.7031C35.875 48.125 36.6562 48.9062 39 49.8438C41.4219 50.7812 41.9688 51.4062 41.9688 53.125C41.9688 54.6875 41.3438 55.4688 39.2344 56.4844C37.6719 57.1875 36.2656 58.3594 36.0312 58.9844C35.6406 59.8438 34.3125 60.1562 31.1094 60.1562H26.6562L26.7344 53.9844C26.7344 48.3594 26.5 47.5 24.3906 44.4531C20.4062 38.8281 13.6875 36.6406 6.1875 38.5156L3.6875 39.2188V31.7188C3.6875 27.5781 3.84375 24.2188 4 24.2188C4.23438 24.2188 5.40625 25.2344 6.65625 26.5625C9.9375 29.7656 12.9844 29.6875 16.7344 26.25C20.5625 22.7344 22.75 23.3594 23.0625 28.0469ZM17.9844 42.6562C22.4375 45 24.9375 51.7969 23.2188 57.1094L22.2031 60.2344L13.1406 60L4.07812 59.7656L3.84375 52.0312C3.6875 47.0312 3.92188 43.9844 4.54688 43.2812C6.73438 40.625 13.375 40.3125 17.9844 42.6562ZM94.3125 64.7656C94.3125 67.7344 92.5156 71.1719 90.3281 72.2656C87.0469 73.9844 10.9531 73.9844 7.67188 72.2656C5.48438 71.1719 3.6875 67.7344 3.6875 64.7656C3.6875 63.3594 5.40625 63.2812 49 63.2812C92.5938 63.2812 94.3125 63.3594 94.3125 64.7656ZM66.1875 82.8125C67.9062 86.25 69.3125 89.2188 69.3125 89.4531C69.3125 89.6875 60.1719 89.8438 49 89.8438C37.8281 89.8438 28.6875 89.6875 28.6875 89.4531C28.6875 89.2188 30.0938 86.25 31.8125 82.8125L34.9375 76.5625H49H63.0625L66.1875 82.8125ZM83.2188 93.9062C83.8438 94.5312 83.9219 95.0781 83.2969 95.8594C81.9688 97.3438 16.0312 97.3438 14.7031 95.8594C12.5156 93.2031 15.0156 92.9688 49 92.9688C73.4531 92.9688 82.5156 93.2031 83.2188 93.9062Z" fill="#FF6C2B"/>
<path d="M29.8594 10.3907C27.9062 15.0001 27.5937 17.2657 28.7656 18.047C30.4844 19.1407 30.6406 18.9845 32.0469 14.6095C33.6875 9.45322 33.6875 8.90634 32.125 8.28134C31.3437 7.96884 30.6406 8.59384 29.8594 10.3907Z" fill="#FF6C2B"/>
<path d="M50.5625 10.1562C50.5625 11.1719 51.1094 11.7188 52.125 11.7188C53.1406 11.7188 53.6875 11.1719 53.6875 10.1562C53.6875 9.14062 53.1406 8.59375 52.125 8.59375C51.1094 8.59375 50.5625 9.14062 50.5625 10.1562Z" fill="#FF6C2B"/>
<path d="M57.5938 10.1562C57.5938 11.6406 58.1406 11.7188 73.2188 11.7188C88.2969 11.7188 88.8438 11.6406 88.8438 10.1562C88.8438 8.67188 88.2969 8.59375 73.2188 8.59375C58.1406 8.59375 57.5938 8.67188 57.5938 10.1562Z" fill="#FF6C2B"/>
<path d="M22.2031 10.7813C20.4062 12.7345 20.5625 14.297 22.6719 16.3282C24.3125 17.8126 24.625 17.8907 25.5625 16.797C26.3437 15.8595 26.3437 15.3907 25.5625 14.4532C24.7812 13.5157 24.7812 13.047 25.5625 12.1095C27.5937 9.68758 24.3906 8.35945 22.2031 10.7813Z" fill="#FF6C2B"/>
<path d="M35.3281 10.1563C35.0156 10.6251 35.25 11.4845 35.7188 12.1095C36.5 13.047 36.5 13.5157 35.7188 14.4532C34.9375 15.3907 34.9375 15.8595 35.7188 16.797C36.6563 17.8907 36.9688 17.8126 38.6094 16.3282C40.7969 14.2188 40.875 12.422 39 10.7032C37.3594 9.21883 36.0313 8.98445 35.3281 10.1563Z" fill="#FF6C2B"/>
<path d="M44.3125 16.4062C44.3125 17.9688 44.8594 17.9688 66.5781 17.9688C88.2969 17.9688 88.8438 17.9688 88.8438 16.4062C88.8438 14.8438 88.2969 14.8438 66.5781 14.8438C44.8594 14.8438 44.3125 14.8438 44.3125 16.4062Z" fill="#FF6C2B"/>
<path d="M44.3125 23.4375C44.3125 24.9219 44.8594 25 58.375 25C71.8906 25 72.4375 24.9219 72.4375 23.4375C72.4375 21.9531 71.8906 21.875 58.375 21.875C44.8594 21.875 44.3125 21.9531 44.3125 23.4375Z" fill="#FF6C2B"/>
<path d="M44.3125 30.0781V32.0312L58.2187 31.875C71.8906 31.6406 72.0469 31.6406 72.2812 29.8438L72.5156 28.125H58.4531H44.3125V30.0781Z" fill="#FF6C2B"/>
<path d="M75.5625 43.3594C75.5625 50.9375 75.4844 51.5625 74.0781 51.5625C72.75 51.5625 72.5156 50.9375 72.2812 47.5C72.125 44.2969 71.7344 43.2812 70.7188 43.125C69.5469 42.8906 69.3125 43.5156 69.3125 47.1875C69.3125 51.3281 69.2344 51.5625 67.3594 51.5625C65.4844 51.5625 65.4062 51.4062 65.4062 46.4844C65.4062 41.9531 65.25 41.4062 63.8438 41.4062C62.4375 41.4062 62.2812 41.9531 62.2812 46.4844C62.2812 51.0156 62.125 51.5625 60.7188 51.5625C59.3906 51.5625 59.1562 51.0156 59.1562 48.4375C59.1562 45.8594 58.9219 45.3125 57.5938 45.3125C56.2656 45.3125 56.0312 45.8594 56.0312 48.4375C56.0312 51.25 55.875 51.5625 54.0781 51.5625C52.6719 51.5625 52.125 51.9531 52.125 53.125C52.125 54.6094 52.6719 54.6875 70.4844 54.6875C88.2969 54.6875 88.8438 54.6094 88.8438 53.125C88.8438 52.1094 88.2969 51.5625 87.2812 51.5625C85.875 51.5625 85.7188 51.0156 85.7188 44.9219C85.7188 38.8281 85.5625 38.2812 84.1562 38.2812C82.75 38.2812 82.5938 38.8281 82.5938 44.9219C82.5938 51.4844 82.5938 51.5625 80.6406 51.5625H78.6875V43.3594C78.6875 35.7031 78.6094 35.1562 77.125 35.1562C75.6406 35.1562 75.5625 35.7031 75.5625 43.3594Z" fill="#FF6C2B"/>
<path d="M47.4375 68.3594C47.4375 69.7656 47.8281 70.3125 49 70.3125C50.1719 70.3125 50.5625 69.7656 50.5625 68.3594C50.5625 66.9531 50.1719 66.4062 49 66.4062C47.8281 66.4062 47.4375 66.9531 47.4375 68.3594Z" fill="#FF6C2B"/>
</svg>
