<svg width="50" height="38" viewBox="0 0 50 38" fill="none" xmlns="http://www.w3.org/2000/svg">
<path d="M45.3125 0.00244141C47.9004 0.00244141 50 2.10107 50 4.68994C50 6.16455 49.3066 7.55127 48.125 8.43994L26.875 24.3774C25.7617 25.2075 24.2383 25.2075 23.125 24.3774L1.875 8.43994C0.694629 7.55127 0 6.16455 0 4.68994C0 2.10107 2.09863 0.00244141 4.6875 0.00244141H45.3125ZM21.25 26.8774C23.4766 28.5474 26.5234 28.5474 28.75 26.8774L50 10.9399V31.2524C50 34.6997 47.1973 37.5024 43.75 37.5024H6.25C2.79785 37.5024 0 34.6997 0 31.2524V10.9399L21.25 26.8774Z" fill="#00B1FF"/>
</svg>
