<svg width="50" height="51" viewBox="0 0 50 51" fill="none" xmlns="http://www.w3.org/2000/svg">
<path d="M49.9219 37.7935L47.6514 47.6373C47.3324 49.0289 46.1094 50.0025 44.6768 50.0025C20.0391 50.0006 0 29.9615 0 5.32284C0 3.8912 0.973535 2.66659 2.36523 2.34921L12.209 0.0786998C13.6426 -0.253527 15.1074 0.490614 15.7031 1.84823L20.2461 12.4439C20.7771 13.692 20.4189 15.1461 19.3691 16.0035L14.1113 20.2252C17.4297 26.985 22.9258 32.481 29.6875 35.8014L33.9922 30.5474C34.8406 29.4947 36.3057 29.1305 37.5537 29.671L48.1494 34.213C49.4238 34.8834 50.2539 36.3678 49.9219 37.7935Z" fill="#00B1FF"/>
</svg>
