<svg width="80" height="75" viewBox="0 0 80 75" fill="none" xmlns="http://www.w3.org/2000/svg">
<path d="M23.7656 1.07001C25.2969 2.60993 25.4219 5.24359 24.0312 6.95538L12.7875 20.8511C12.0984 21.6844 11.1266 22.1879 10.0984 22.0664C9.07031 22.2574 8.07656 21.806 7.34844 20.8511L1.09828 13.9067C-0.366094 12.431 -0.366094 9.79217 1.09828 8.16544C2.5625 6.53872 4.9375 6.53872 6.40156 8.16544L9.85625 11.997L18.4688 1.37904C19.8438 -0.33102 22.2188 -0.469908 23.7656 1.07001ZM23.7656 28.8545C25.2969 30.3823 25.4219 33.0212 24.0312 34.7399L12.7875 48.6287C12.0984 49.462 11.1266 49.9655 10.0984 49.8439C9.07031 50.0349 8.07656 49.5835 7.34844 48.6287L1.09828 41.6843C-0.366094 40.2086 -0.366094 37.5697 1.09828 35.9378C2.5625 34.3232 4.9375 34.3232 6.40156 35.9378L9.85625 39.7746L18.4688 29.1497C19.8438 27.4483 22.2188 27.3094 23.7656 28.8545ZM35 11.1116C35 8.04392 37.2344 5.55609 40 5.55609H75C77.7656 5.55609 80 8.04392 80 11.1116C80 14.1845 77.7656 16.6671 75 16.6671H40C37.2344 16.6671 35 14.1845 35 11.1116ZM35 38.8892C35 35.8163 37.2344 33.3337 40 33.3337H75C77.7656 33.3337 80 35.8163 80 38.8892C80 41.9621 77.7656 44.4447 75 44.4447H40C37.2344 44.4447 35 41.9621 35 38.8892ZM25 66.6667C25 63.5938 27.2344 61.1112 30 61.1112H75C77.7656 61.1112 80 63.5938 80 66.6667C80 69.7396 77.7656 72.2222 75 72.2222H30C27.2344 72.2222 25 69.7396 25 66.6667ZM7.94729e-08 66.6667C7.94729e-08 62.0661 3.35781 58.3335 7.5 58.3335C11.6422 58.3335 15 62.0661 15 66.6667C15 71.2674 11.6422 75 7.5 75C3.35781 75 7.94729e-08 71.2674 7.94729e-08 66.6667Z" fill="#CEE8FD"/>
</svg>
