<svg width="0" height="0" class="hidden">
  <symbol xmlns="http://www.w3.org/2000/svg" viewBox="0 0 16 32" id="facebook">
    <path d="M10.2087 16.989H15.1716L15.9511 11.9474H10.2087V9.19176C10.2087 7.09768 10.8933 5.24042 12.8522 5.24042H16V0.841306C15.4468 0.766517 14.277 0.603516 12.0669 0.603516C7.45107 0.603516 4.74525 3.04086 4.74525 8.59441V11.9484H0V16.9899H4.74429V30.847C5.68394 30.9869 6.63606 31.0828 7.61311 31.0828C8.49619 31.0828 9.35818 31.0023 10.2087 30.8872V16.989Z"></path>
  </symbol>
  <symbol xmlns="http://www.w3.org/2000/svg" viewBox="0 0 30 31" id="instagram">
    <path d="M8.74756 0.843262C3.92381 0.843262 0 4.7707 0 9.5957V22.0957C0 26.9195 3.92744 30.8433 8.75244 30.8433H21.2524C26.0762 30.8433 30 26.9158 30 22.0908V9.59082C30 4.76707 26.0726 0.843262 21.2476 0.843262H8.74756ZM23.75 5.84326C24.44 5.84326 25 6.40326 25 7.09326C25 7.78326 24.44 8.34326 23.75 8.34326C23.06 8.34326 22.5 7.78326 22.5 7.09326C22.5 6.40326 23.06 5.84326 23.75 5.84326ZM15 8.34326C19.1362 8.34326 22.5 11.707 22.5 15.8433C22.5 19.9795 19.1362 23.3433 15 23.3433C10.8638 23.3433 7.5 19.9795 7.5 15.8433C7.5 11.707 10.8638 8.34326 15 8.34326ZM15 10.8433C13.6739 10.8433 12.4021 11.37 11.4645 12.3077C10.5268 13.2454 10 14.5172 10 15.8433C10 17.1693 10.5268 18.4411 11.4645 19.3788C12.4021 20.3165 13.6739 20.8433 15 20.8433C16.3261 20.8433 17.5979 20.3165 18.5355 19.3788C19.4732 18.4411 20 17.1693 20 15.8433C20 14.5172 19.4732 13.2454 18.5355 12.3077C17.5979 11.37 16.3261 10.8433 15 10.8433Z"></path>
  </symbol>
  <symbol xmlns="http://www.w3.org/2000/svg" viewBox="0 0 30 26" id="twitter">
    <path d="M30 3.53947C28.8958 4.02983 27.7097 4.35982 26.4648 4.50866C27.7362 3.74715 28.7112 2.54143 29.1704 1.10379C27.982 1.80876 26.6644 2.32105 25.2613 2.59796C24.1387 1.40147 22.5395 0.653809 20.7696 0.653809C17.3705 0.653809 14.6152 3.41024 14.6152 6.80819C14.6152 7.29048 14.6706 7.76123 14.7744 8.21006C9.65963 7.95391 5.12519 5.50324 2.08838 1.77877C1.55994 2.68796 1.25649 3.74484 1.25649 4.87442C1.25649 7.00895 2.34222 8.89311 3.99331 9.99614C2.98489 9.96384 2.03531 9.68692 1.20572 9.22656C1.20572 9.25309 1.20572 9.27732 1.20572 9.30386C1.20572 12.2864 3.32641 14.774 6.14284 15.3382C5.62709 15.479 5.0825 15.554 4.5206 15.554C4.12484 15.554 3.73832 15.5148 3.36333 15.4444C4.14676 17.8893 6.41975 19.6696 9.11273 19.7192C7.00704 21.3703 4.35329 22.3545 1.46879 22.3545C0.972655 22.3545 0.482289 22.3257 0 22.268C2.72413 24.0137 5.95823 25.0325 9.43464 25.0325C20.7557 25.0325 26.9447 15.6544 26.9447 7.52124C26.9447 7.25471 26.939 6.98933 26.9274 6.72511C28.1308 5.8563 29.175 4.77288 30 3.53947Z"></path>
  </symbol>
</svg>