<svg width="100" height="84" viewBox="0 0 100 84" fill="none" xmlns="http://www.w3.org/2000/svg">
<path d="M35 41.6667C46.0469 41.6667 55 32.3389 55 20.8333C55 9.3278 46.0469 0 35 0C23.9531 0 15 9.3278 15 20.8333C15 32.3389 23.9531 41.6667 35 41.6667ZM42.9219 49.4792H27.0781C12.1203 49.4792 0 62.1094 0 77.6855C0 80.8105 2.425 83.3333 5.41563 83.3333H64.5781C67.5781 83.3333 70 80.8105 70 77.6855C70 62.1094 57.875 49.4792 42.9219 49.4792ZM74.8594 52.0833H63.3203C70.5 58.2194 75 67.3991 75 77.6855C75 79.7689 74.4062 81.6895 73.4375 83.3333H95C97.7656 83.3333 100 80.9896 100 77.9785C100 63.737 88.8125 52.0833 74.8594 52.0833ZM67.5 41.6667C77.1719 41.6667 85 33.5124 85 23.4375C85 13.3626 77.1719 5.20833 67.5 5.20833C63.5766 5.20833 59.9938 6.60075 57.075 8.87207C58.875 12.4723 60 16.5039 60 20.8333C60 26.6146 58.1359 31.9238 55.0641 36.2484C58.2344 39.5833 62.625 41.6667 67.5 41.6667Z" fill="#CEE8FD"/>
</svg>
